#define icon_width 51
#define icon_height 51
static char icon_bits[] = {
  0x0, 0x0, 0x0, 0x0, 0x0, 0x0, 0x0, 0x0, 0x0, 0x0, 0x0, 0xfe, 0xfc, 0x1, 0x0, 0x0, 0x0, 0x0, 0xfe, 0xfc, 0x1, 0x0, 0x0, 0x0, 0x0, 0xfe, 0xfc, 0x1, 0x0, 0x0, 0x0, 0x0, 0xfe, 0xfc, 0x1, 0x0, 0x0, 0x0, 0x0, 0x7c, 0xf8, 0x0, 0x0, 0x0, 0x0, 0x0, 0x7c, 0xf8, 0x0, 0x0, 0x0, 0x0, 0x0, 0x7c, 0xf8, 0x0, 0x0, 0x0, 0x0, 0x0, 0x38, 0x70, 0x0, 0x0, 0x0, 0x0, 0x0, 0x38, 0x70, 0x0, 0x0, 0x0, 0x0, 0x0, 0x38, 0x70, 0x0, 0x0, 0x0, 0x0, 0x0, 0x10, 0x20, 0x0, 0x0, 0x0, 0x0, 0x0, 0x10, 0x20, 0x0, 0x0, 0x0, 0x0, 0x0, 0x10, 0x20, 0x0, 0x0, 0x0, 0x0, 0x0, 0x0, 0x0, 0x0, 0x0, 0x0, 0x0, 0x0, 0x0, 0x0, 0x0, 0x0, 0x0, 0x0, 0x0, 0x38, 0x70, 0x0, 0x0, 0x0, 0x0, 0x0, 0x7c, 0xf8, 0x0, 0x0, 0x0, 0x0, 0x0, 0x7c, 0xf8, 0x0, 0x0, 0x0, 0x0, 0x0, 0x7c, 0xf8, 0x0, 0x0, 0x0, 0x0, 0x0, 0x38, 0x70, 0x0, 0x0, 0x0, 0x0, 0x0, 0x0, 0x0, 0x0, 0x0, 0x0, 0x0, 0x0, 0x0, 0x0, 0x0, 0x0, 0x0, 0x0, 0x0, 0x0, 0x0, 0x0, 0x0, 0x0, 0x0, 0x0, 0x0, 0x0, 0x0, 0x0, 0x0, 0x0, 0x0, 0x0, 0x0, 0x0, 0x0, 0x0, 0x0, 0x0, 0x0, 0x0, 0x0, 0x0, 0x0, 0x0, 0x0, 0x0, 0x0, 0x0, 0x0, 0x0, 0xfc, 0x3, 0x0, 0x0, 0x0, 0x0, 0xf8, 0xff, 0x1, 0x0, 0x0, 0x0, 0xf8, 0xff, 0xf, 0x0, 0x0, 0x0, 0x0, 0xf8, 0x3f, 0x0, 0x0, 0x0, 0x0, 0x0, 0x0, 0x1f, 0x0, 0x0, 0x0, 0x0, 0x0, 0x0, 0x1f, 0x1c, 0x0, 0x0, 0x0, 0x0, 0x80, 0xf, 0x1c, 0x0, 0x0, 0x0, 0x0, 0xc0, 0xf, 0x1c, 0x6, 0x0, 0x0, 0x0, 0xc0, 0x37, 0xbc, 0x7, 0x0, 0x0, 0x0, 0xc0, 0x7b, 0xf8, 0x7, 0x0, 0x0, 0x0, 0xe0, 0xf9, 0xf8, 0x3, 0x0, 0x0, 0x0, 0xf0, 0x7c, 0xf8, 0x0, 0x0, 0x0, 0x0, 0x70, 0x3c, 0x78, 0x0, 0x0, 0x0, 0x0, 0xd8, 0x3e, 0x38, 0x18, 0x0, 0x0, 0x0, 0x80, 0x1f, 0x38, 0x1c, 0x0, 0x0, 0x0, 0x80, 0xf, 0x38, 0x1e, 0x0, 0x0, 0x0, 0x80, 0x7, 0x78, 0x1f, 0x0, 0x0, 0x0, 0xc0, 0xf, 0xf0, 0xf, 0x0, 0x0, 0x0, 0xc0, 0x1b, 0xf0, 0x3, 0x0, 0x0, 0x0, 0xe0, 0x31, 0xe0, 0x1, 0x0, 0x0, 0x0, 0xe0, 0x20, 0x0, 0x0, 0x0, 0x0, 0x0, 0x30, 0x0, 0x0, 0x0, 0x0, 0x0, 0x0, 0x0, 0x0, 0x0, 0x0, 0x0, 0x0, 0x0, };
