#define icon_width 51
#define icon_height 51
static char icon_bits[] = {
  0x0, 0x0, 0x0, 0x0, 0x0, 0x0, 0x0, 0x0, 0x0, 0x0, 0x0, 0x0, 0x0, 0x0, 0x0, 0x0, 0x0, 0x0, 0xc0, 0xe7, 0x3, 0x0, 0x0, 0x0, 0x0, 0xc0, 0xe7, 0x3, 0x0, 0x0, 0x0, 0x0, 0xc0, 0xe7, 0x3, 0x0, 0x0, 0x0, 0x0, 0xc0, 0xe7, 0x3, 0x0, 0x0, 0x0, 0x0, 0xc0, 0xe7, 0x3, 0x0, 0x0, 0x0, 0x0, 0xc0, 0xe7, 0x3, 0x0, 0x0, 0x0, 0x0, 0xc0, 0xe7, 0x3, 0x0, 0x0, 0x0, 0x0, 0xc0, 0xe7, 0x3, 0x0, 0x0, 0x0, 0x0, 0xc0, 0xe7, 0x3, 0x0, 0x0, 0x0, 0x0, 0xc0, 0xe7, 0x3, 0x0, 0x0, 0x0, 0x0, 0xc0, 0xe7, 0x3, 0x0, 0x0, 0x0, 0x0, 0xc0, 0xe7, 0x3, 0x0, 0x0, 0x0, 0x0, 0xc0, 0xe7, 0x3, 0x0, 0x0, 0x0, 0x0, 0xc0, 0xe7, 0x3, 0x0, 0x0, 0x0, 0x0, 0xc0, 0xe7, 0x3, 0x0, 0x0, 0x0, 0x0, 0x0, 0x0, 0x0, 0x0, 0x0, 0x0, 0x0, 0x0, 0x0, 0x0, 0x0, 0x0, 0x0, 0x0, 0x0, 0x0, 0x0, 0x0, 0x0, 0x0, 0x0, 0x80, 0xc3, 0x1, 0x0, 0x0, 0x0, 0x0, 0xc0, 0xe7, 0x3, 0x0, 0x0, 0x0, 0x0, 0xc0, 0xe7, 0x3, 0x0, 0x0, 0x0, 0x0, 0xc0, 0xe7, 0x3, 0x0, 0x0, 0x0, 0x0, 0x80, 0xc3, 0x1, 0x0, 0x0, 0x0, 0x0, 0x0, 0x0, 0x0, 0x0, 0x0, 0x0, 0x0, 0x0, 0x0, 0x0, 0x0, 0x0, 0x0, 0x0, 0x0, 0x0, 0x0, 0x0, 0x0, 0x0, 0x0, 0x0, 0x0, 0x0, 0x0, 0x0, 0x0, 0x0, 0x0, 0x0, 0x0, 0x0, 0x0, 0x0, 0x0, 0x0, 0x0, 0x0, 0x0, 0x0, 0x0, 0x0, 0x0, 0x0, 0x0, 0x0, 0x0, 0x0, 0x0, 0x0, 0x0, 0x0, 0x0, 0x0, 0x0, 0x0, 0x0, 0x0, 0x0, 0x0, 0x0, 0x0, 0x0, 0x0, 0x0, 0x0, 0x0, 0x0, 0x0, 0x0, 0x0, 0x0, 0x0, 0x0, 0x0, 0x0, 0x0, 0x0, 0x0, 0x0, 0x0, 0x0, 0x0, 0x0, 0x0, 0x0, 0x0, 0x0, 0x0, 0x0, 0x0, 0x0, 0x0, 0x0, 0x0, 0x0, 0x0, 0x0, 0x0, 0x0, 0x0, 0x0, 0x0, 0x0, 0x0, 0x0, 0x0, 0x0, 0x0, 0x0, 0x0, 0x0, 0x0, 0x0, 0x0, 0x0, 0x0, 0x0, 0x0, 0x0, 0x0, 0x0, 0x0, 0x0, 0x0, 0x0, 0x0, 0x0, 0x0, 0x0, 0x0, 0x0, 0x0, 0x0, 0x0, 0x0, 0x0, 0x0, 0x0, 0x0, 0x0, 0x0, 0x0, 0x0, 0x0, 0x0, 0x0, 0x0, 0x0, 0x0, 0x0, 0x0, 0x0, 0x0, 0x0, 0x0, 0x0, 0x0, 0x0, 0x0, 0x0, 0x0, 0x0, 0x0, 0x0, 0x0, 0x0, 0x0, 0x0, 0x0, 0x0, 0x0, 0x0, 0x0, 0x0, 0x0, 0x0, 0x0, };
