#define icon_width 51
#define icon_height 51
static char icon_bits[] = {
  0x0, 0x0, 0x0, 0x0, 0x0, 0x0, 0x0, 0x0, 0x0, 0x0, 0x0, 0x80, 0xff, 0x3, 0x0, 0x0, 0x0, 0x0, 0x80, 0xff, 0x3, 0x0, 0x0, 0x0, 0x0, 0x0, 0xff, 0x1, 0x0, 0x0, 0x0, 0x0, 0x0, 0xff, 0x1, 0x0, 0x0, 0x0, 0x0, 0x0, 0xff, 0x1, 0x0, 0x0, 0x0, 0x0, 0x0, 0xfe, 0x0, 0x0, 0x0, 0x0, 0x0, 0x0, 0xfe, 0x0, 0x0, 0x0, 0x0, 0x0, 0x0, 0xfe, 0x0, 0x0, 0x0, 0x0, 0x0, 0x0, 0xfe, 0x0, 0x0, 0x0, 0x0, 0x0, 0x0, 0x7c, 0x0, 0x0, 0x0, 0x0, 0x0, 0x0, 0x7c, 0x0, 0x0, 0x0, 0x0, 0x0, 0x0, 0x7c, 0x0, 0x0, 0x0, 0x0, 0x0, 0x0, 0x38, 0x0, 0x0, 0x0, 0x0, 0x0, 0x0, 0x38, 0x0, 0x0, 0x0, 0x0, 0x0, 0x0, 0x38, 0x0, 0x0, 0x0, 0x0, 0x0, 0x0, 0x38, 0x0, 0x0, 0x0, 0x0, 0x0, 0x0, 0x38, 0x0, 0x0, 0x0, 0x0, 0x0, 0x0, 0x10, 0x0, 0x0, 0x0, 0x0, 0x0, 0x0, 0x0, 0x0, 0x0, 0x0, 0x0, 0x0, 0x0, 0x0, 0x0, 0x0, 0x0, 0x0, 0x0, 0x0, 0x38, 0x0, 0x0, 0x0, 0x0, 0x0, 0x0, 0x7c, 0x0, 0x0, 0x0, 0x0, 0x0, 0x0, 0x7c, 0x0, 0x0, 0x0, 0x0, 0x0, 0x0, 0x7c, 0x0, 0x0, 0x0, 0x0, 0x0, 0x0, 0x38, 0x0, 0x0, 0x0, 0x0, 0x0, 0x0, 0x0, 0x0, 0x0, 0x0, 0x0, 0x0, 0x0, 0x0, 0x0, 0x0, 0x0, 0x0, 0x0, 0x0, 0x0, 0x0, 0x0, 0x0, 0x0, 0x0, 0x0, 0x0, 0x0, 0x0, 0x0, 0x0, 0x0, 0x0, 0x0, 0x0, 0x0, 0x0, 0x0, 0x0, 0x0, 0x0, 0x0, 0x0, 0x0, 0x0, 0x0, 0x0, 0x0, 0x0, 0x0, 0x0, 0x0, 0x0, 0x0, 0x0, 0x0, 0x0, 0x0, 0x0, 0x0, 0x0, 0x0, 0x0, 0x0, 0x0, 0x0, 0x0, 0x0, 0x0, 0x0, 0x0, 0x0, 0x0, 0x0, 0x0, 0x0, 0x0, 0x0, 0x0, 0x0, 0x0, 0x0, 0x0, 0x0, 0x0, 0x0, 0x0, 0x0, 0x0, 0x0, 0x0, 0x0, 0x0, 0x0, 0x0, 0x0, 0x0, 0x0, 0x0, 0x0, 0x0, 0x0, 0x0, 0x0, 0x0, 0x0, 0x0, 0x0, 0x0, 0x0, 0x0, 0x0, 0x0, 0x0, 0x0, 0x0, 0x0, 0x0, 0x0, 0x0, 0x0, 0x0, 0x0, 0x0, 0x0, 0x0, 0x0, 0x0, 0x0, 0x0, 0x0, 0x0, 0x0, 0x0, 0x0, 0x0, 0x0, 0x0, 0x0, 0x0, 0x0, 0x0, 0x0, 0x0, 0x0, 0x0, 0x0, 0x0, 0x0, 0x0, 0x0, 0x0, 0x0, 0x0, 0x0, 0x0, 0x0, 0x0, 0x0, 0x0, 0x0, 0x0, 0x0, 0x0, 0x0, 0x0, 0x0, 0x0, 0x0, 0x0, 0x0, 0x0, 0x0, 0x0, 0x0, };
