#define icon_width 43
#define icon_height 43
static char icon_bits[] = {
  0x0, 0x0, 0x0, 0x0, 0x0, 0x0, 0x0, 0x0, 0x0, 0x0, 0x0, 0x0, 0x0, 0x0, 0x0, 0xfe, 0xfc, 0x1, 0x0, 0x0, 0x0, 0xfe, 0xfc, 0x1, 0x0, 0x0, 0x0, 0xfe, 0xfc, 0x1, 0x0, 0x0, 0x0, 0xfe, 0xfc, 0x1, 0x0, 0x0, 0x0, 0x7c, 0xf8, 0x0, 0x0, 0x0, 0x0, 0x7c, 0xf8, 0x0, 0x0, 0x0, 0x0, 0x7c, 0xf8, 0x0, 0x0, 0x0, 0x0, 0x38, 0x70, 0x0, 0x0, 0x0, 0x0, 0x38, 0x70, 0x0, 0x0, 0x0, 0x0, 0x38, 0x70, 0x0, 0x0, 0x0, 0x0, 0x10, 0x20, 0x0, 0x0, 0x0, 0x0, 0x10, 0x20, 0x0, 0x0, 0x0, 0x0, 0x10, 0x20, 0x0, 0x0, 0x0, 0x0, 0x0, 0x0, 0x0, 0x0, 0x0, 0x0, 0x0, 0x0, 0x0, 0x0, 0x0, 0x0, 0x38, 0x70, 0x0, 0x0, 0x0, 0x0, 0x7c, 0xf8, 0x0, 0x0, 0x0, 0x0, 0x7c, 0xf8, 0x0, 0x0, 0x0, 0x0, 0x7c, 0xf8, 0x0, 0x0, 0x0, 0x0, 0x38, 0x70, 0x0, 0x0, 0x0, 0x0, 0x0, 0x0, 0x0, 0x0, 0x0, 0x0, 0x0, 0x0, 0x0, 0x0, 0x0, 0x0, 0x0, 0x0, 0x0, 0x0, 0x0, 0x0, 0x0, 0x0, 0x0, 0x0, 0x0, 0x0, 0x0, 0x0, 0x0, 0x0, 0x0, 0x0, 0x0, 0x0, 0x0, 0x0, 0x0, 0x0, 0x0, 0x0, 0x0, 0x0, 0x0, 0x0, 0x0, 0x0, 0x0, 0x0, 0x0, 0x0, 0x0, 0x0, 0x0, 0x0, 0x0, 0x0, 0x0, 0x0, 0x0, 0x0, 0x0, 0x0, 0x0, 0x0, 0x0, 0x0, 0x0, 0x0, 0x0, 0x0, 0x0, 0x0, 0x0, 0x0, 0x0, 0x0, 0x0, 0x0, 0x0, 0x0, 0x0, 0x0, 0x0, 0x0, 0x0, 0x0, 0x0, 0x0, 0x0, 0x0, 0x0, 0x0, 0x0, 0x0, 0x0, 0x0, 0x0, 0x0, 0x0, 0x0, 0x0, 0x0, 0x0, 0x0, 0x0, 0x0, 0x0, 0x0, 0x0, 0x0, 0x0, 0x0, 0x0, 0x0, 0x0, 0x0, 0x0, 0x0, 0x0, 0x0, 0x0, 0x0, 0x0, 0x0, 0x0, };
