#define icon_width 40
#define icon_height 7
static char icon_bits[] = {
  0x0, 0x0, 0x0, 0x0, 0x0, 0x2e, 0x99, 0xbb, 0x4b, 0xfd, 0x22, 0xa5, 0x8a, 0x48, 0x45, 0xee, 0xbd, 0x9b, 0x7b, 0x5d, 0x28, 0xa5, 0x8, 0x4a, 0x45, 0x2e, 0xa5, 0xb8, 0x4b, 0x45, 0x0, 0x0, 0x0, 0x0, 0x0, };
