#define icon_width 30
#define icon_height 16
static char icon_bits[] = {
  0x0, 0x0, 0x0, 0x0, 0x0, 0x0, 0x0, 0x0, 0x0, 0x0, 0x0, 0x0, 0x5c, 0x32, 0xe7, 0x0, 0x44, 0x4a, 0x29, 0x0, 0xdc, 0x7b, 0x69, 0x0, 0x50, 0x4a, 0x27, 0x0, 0x5c, 0x4a, 0xe1, 0x0, 0x0, 0x0, 0x0, 0x0, 0x2e, 0x75, 0x77, 0x17, 0x22, 0x15, 0x12, 0x15, 0xee, 0x75, 0x32, 0x17, 0x28, 0x15, 0x12, 0x3, 0x2e, 0x15, 0x72, 0x15, 0x0, 0x0, 0x0, 0x0, 0x0, 0x0, 0x0, 0x0, };
