#define icon_width 51
#define icon_height 51
static char icon_bits[] = {
  0x0, 0x0, 0x0, 0x0, 0x0, 0x0, 0x0, 0x0, 0x0, 0x0, 0x0, 0x0, 0x0, 0x0, 0x0, 0x0, 0x8e, 0x3, 0xe0, 0xf3, 0x1, 0x0, 0x0, 0x71, 0x4, 0xe0, 0xf3, 0x1, 0x0, 0x80, 0x0, 0x8, 0xe0, 0xf3, 0x1, 0x0, 0x7c, 0x0, 0x8, 0xe0, 0xf3, 0x1, 0x0, 0x2, 0x0, 0x10, 0xc0, 0xe1, 0x0, 0x0, 0x1, 0x0, 0x10, 0xc0, 0xe1, 0x0, 0xf0, 0x0, 0x10, 0x10, 0xc0, 0xe1, 0x0, 0x8, 0x0, 0x10, 0x10, 0x80, 0x40, 0x0, 0x8, 0x40, 0x10, 0x10, 0x80, 0x40, 0x0, 0x4, 0x40, 0x20, 0x10, 0x80, 0x40, 0x0, 0x84, 0x40, 0x20, 0x30, 0x0, 0x0, 0x0, 0x84, 0x40, 0x20, 0x30, 0x0, 0x0, 0x0, 0x4, 0x41, 0x20, 0x50, 0xc0, 0xe1, 0x0, 0x4, 0x41, 0x20, 0x50, 0xe0, 0xf3, 0x1, 0x4, 0x41, 0x20, 0x50, 0xe0, 0xf3, 0x1, 0x4, 0x41, 0x20, 0x50, 0xe0, 0xf3, 0x1, 0x4, 0x41, 0x20, 0x50, 0xc0, 0xe1, 0x0, 0x4, 0x41, 0x20, 0x48, 0x0, 0x0, 0x0, 0x8, 0x41, 0x50, 0x24, 0x0, 0x0, 0x0, 0x90, 0x62, 0x8e, 0x3, 0x0, 0x0, 0x0, 0x70, 0x9c, 0x1, 0x1c, 0x0, 0x0, 0x0, 0x0, 0x0, 0xff, 0x3, 0x0, 0x0, 0x0, 0x0, 0x0, 0x0, 0x0, 0x0, 0x0, 0x0, 0x0, 0x0, 0x0, 0x0, 0x0, 0x0, 0x0, 0x0, 0x0, 0x0, 0x0, 0x0, 0x0, 0x0, 0x0, 0x0, 0x0, 0x0, 0x0, 0x0, 0x0, 0x0, 0x0, 0x0, 0x0, 0x0, 0x0, 0x0, 0x0, 0x0, 0x0, 0x0, 0x0, 0x0, 0x0, 0x0, 0x0, 0x0, 0x0, 0x0, 0x0, 0x0, 0x0, 0x0, 0x0, 0x0, 0x0, 0x0, 0x0, 0x0, 0x0, 0x0, 0x0, 0x0, 0x0, 0x0, 0x0, 0x0, 0x0, 0x0, 0x0, 0x0, 0x0, 0x0, 0x0, 0x0, 0x0, 0x0, 0x0, 0x0, 0x0, 0x0, 0x0, 0x0, 0x0, 0x0, 0x0, 0x0, 0x0, 0x0, 0x0, 0x0, 0x0, 0x0, 0x0, 0x0, 0x0, 0x0, 0x0, 0x0, 0x0, 0x0, 0x0, 0x0, 0x0, 0x0, 0x0, 0x0, 0x0, 0x0, 0x0, 0x0, 0x0, 0x0, 0x0, 0x0, 0x0, 0x0, 0x0, 0x0, 0x0, 0x0, 0x0, 0x0, 0x0, 0x0, 0x0, 0x0, 0x0, 0x0, 0x0, 0x0, 0x0, 0x0, 0x0, 0x0, 0x0, 0x0, 0x0, 0x0, 0x0, 0x0, 0x0, 0x0, 0x0, 0x0, 0x0, 0x0, 0x0, 0x0, 0x0, 0x0, 0x0, 0x0, 0x0, 0x0, 0x0, 0x0, 0x0, 0x0, 0x0, 0x0, 0x0, 0x0, 0x0, 0x0, 0x0, 0x0, 0x0, 0x0, 0x0, 0x0, 0x0, 0x0, 0x0, 0x0, 0x0, 0x0, 0x0, 0x0, 0x0, 0x0, 0x0, 0x0, 0x0, 0x0, 0x0, 0x0, 0x0, 0x0, 0x0, 0x0, };
