#define icon_width 50
#define icon_height 7
static char icon_bits[] = {
  0x0, 0x0, 0x0, 0x0, 0x0, 0x0, 0x0, 0x2e, 0x99, 0xbb, 0x4b, 0xdd, 0xdd, 0x1, 0x22, 0xa5, 0x8a, 0x48, 0x85, 0x44, 0x1, 0xee, 0xbd, 0x9b, 0x7b, 0x9d, 0xcc, 0x1, 0x28, 0xa5, 0x8, 0x4a, 0x85, 0xc4, 0x0, 0x2e, 0xa5, 0xb8, 0x4b, 0x85, 0x5c, 0x1, 0x0, 0x0, 0x0, 0x0, 0x0, 0x0, 0x0, };
